<svg width="32" height="31" xmlns="http://www.w3.org/2000/svg" xmlns:xlink="http://www.w3.org/1999/xlink" xml:space="preserve" overflow="hidden"><defs><clipPath id="clip0"><rect x="76" y="77" width="32" height="31"/></clipPath></defs><g clip-path="url(#clip0)" transform="translate(-76 -77)"><path d="M15.5 3.875C21.9203 3.875 27.125 9.07967 27.125 15.5 27.125 21.9203 21.9203 27.125 15.5 27.125 9.07967 27.125 3.875 21.9203 3.875 15.5 3.88175 9.08248 9.08248 3.88175 15.5 3.875M15.5 3.22917C8.72301 3.22917 3.22917 8.72301 3.22917 15.5 3.22917 22.277 8.72301 27.7708 15.5 27.7708 22.277 27.7708 27.7708 22.277 27.7708 15.5 27.7708 8.72301 22.277 3.22917 15.5 3.22917Z" stroke="#FFFFFF" stroke-width="0.861112" fill="#FFFFFF" transform="matrix(-1.03226 0 0 1 108 77)"/><path d="M23.4786 15.2717 18.6349 10.4279C18.5066 10.304 18.3022 10.3076 18.1783 10.4359 18.0574 10.561 18.0574 10.7594 18.1783 10.8846L22.4653 15.1716C22.4682 15.1745 22.4672 15.1771 22.4631 15.1771L7.53494 15.1771C7.35659 15.1771 7.21202 15.3217 7.21202 15.5 7.21202 15.6783 7.35659 15.8229 7.53494 15.8229L22.4631 15.8229C22.4648 15.8229 22.4662 15.8244 22.4662 15.8262 22.4662 15.827 22.4659 15.8278 22.4653 15.8284L18.1783 20.1154C18.05 20.2394 18.0464 20.4438 18.1703 20.5721 18.2942 20.7003 18.4987 20.7039 18.6269 20.58 18.6296 20.5774 18.6323 20.5747 18.6349 20.5721L23.4786 15.7283C23.6047 15.6022 23.6047 15.3978 23.4786 15.2717Z" stroke="#FFFFFF" stroke-width="0.861112" fill="#FFFFFF" transform="matrix(-1.03226 0 0 1 108 77)"/></g></svg>